<svg width="48" height="48" viewBox="0 0 48 48" fill="none" xmlns="http://www.w3.org/2000/svg">
<g clip-path="url(#clip0_118_1446)">
<g clip-path="url(#clip1_118_1446)">
<path d="M11.645 23.6952C11.645 19.3402 14.465 16.6802 18.575 16.6802C19.86 16.6802 21.27 16.8852 22.455 17.3852L21.75 19.8552C20.9 19.5002 19.82 19.3552 18.845 19.3552C16.52 19.3552 14.8 20.6402 14.8 23.6502C14.8 26.4502 16.375 28.0302 18.865 28.0302C19.8 28.0302 20.855 27.7802 21.77 27.3652L22.745 29.7102C21.27 30.5002 19.715 30.7052 18.47 30.7052C13.695 30.7052 11.64 27.7152 11.64 23.6902L11.645 23.6952Z" fill="#005EB8"/>
<path d="M32.645 23.9252L36.855 30.4402H33.515L30.86 26.3102L28.245 30.4402H24.905L29.14 23.6102L24.845 16.9502H28.165L30.925 21.2252L33.645 16.9502H36.985L32.65 23.9252H32.645Z" fill="#005EB8"/>
<path d="M4 4V32.5H6V6H42V42H15.5V44H44V4H4Z" fill="#005EB8"/>
<path d="M13.5 44H4V34.5H6V42H13.5V44Z" fill="#FDDA24"/>
<path d="M4 4V32.5H6V6H42V42H15.5V44H44V4H4Z" fill="#005EB8"/>
<path d="M13.5 44H4V34.5H6V42H13.5V44Z" fill="#FDDA24"/>
</g>
</g>
<defs>
<clipPath id="clip0_118_1446">
<rect width="48" height="48" fill="white"/>
</clipPath>
<clipPath id="clip1_118_1446">
<rect width="40" height="40" fill="white" transform="translate(4 4)"/>
</clipPath>
</defs>
</svg>
