<svg width="48" height="48" viewBox="0 0 48 48" fill="none" xmlns="http://www.w3.org/2000/svg">
<g clip-path="url(#clip0_119_1699)">
<path d="M35.33 28.98H12.67V30.98H35.33V28.98Z" fill="#005EB8"/>
<path d="M38.95 36.77H8.04999V35.77C8.04999 33.8 8.94999 31.9 10.515 30.555C12.23 29.08 12.54 25.975 12.54 20.395C12.54 14.815 15.45 10.085 20.015 8.29502C20.08 7.27002 20.53 6.29502 21.285 5.58502C22.105 4.81002 23.185 4.42002 24.315 4.48502C26.045 4.58502 27.56 5.83502 28 7.52502C28.07 7.79502 28.115 8.07002 28.125 8.35002C32.605 10.185 35.46 14.825 35.46 20.395C35.46 25.965 35.775 29.08 37.485 30.555C39.05 31.905 39.95 33.8 39.95 35.765V36.765L38.95 36.775V36.77ZM10.16 34.77H37.84C37.61 33.75 37.035 32.8 36.18 32.07C33.66 29.9 33.46 25.68 33.46 20.395C33.46 15.41 30.835 11.32 26.775 9.98502L25.965 9.72002L26.1 8.87502C26.145 8.58502 26.135 8.31002 26.06 8.03502C25.835 7.17502 25.065 6.54002 24.19 6.48502C23.61 6.45002 23.065 6.65002 22.65 7.04002C22.235 7.43502 22.005 7.96502 22.005 8.54002C22.005 8.64002 22.015 8.74502 22.03 8.84502L22.155 9.69002L21.34 9.94502C17.21 11.24 14.54 15.345 14.54 20.395C14.54 25.445 14.34 29.9 11.82 32.07C10.965 32.805 10.39 33.755 10.16 34.77Z" fill="#005EB8"/>
<path d="M24 43.5198C21.25 43.5198 19.01 41.2798 19.01 38.5298H21.01C21.01 40.1798 22.35 41.5198 24 41.5198C25.65 41.5198 26.99 40.1798 26.99 38.5298H28.99C28.99 41.2798 26.75 43.5198 24 43.5198Z" fill="#005EB8"/>
<path d="M40.025 23.7052L38.06 23.3402C38.51 20.9202 38.51 18.4652 38.06 16.0452L40.025 15.6802C40.52 18.3402 40.52 21.0402 40.025 23.7052Z" fill="#FDDA24"/>
<path d="M44.775 24.77L42.835 24.29C43.565 21.325 43.575 18.185 42.86 15.205L42.83 15.08L44.78 14.645L44.805 14.755C45.59 18.025 45.585 21.49 44.775 24.765V24.77Z" fill="#FDDA24"/>
<path d="M7.97501 23.7101C7.48001 21.0501 7.48001 18.3501 7.97501 15.6851L9.94001 16.0501C9.49001 18.4701 9.49001 20.9251 9.94001 23.3451L7.97501 23.7101Z" fill="#FDDA24"/>
<path d="M3.22001 24.745L3.19501 24.635C2.41001 21.365 2.41501 17.9 3.22501 14.625L5.16501 15.105C4.43501 18.07 4.42501 21.21 5.14001 24.19L5.17001 24.315L3.22001 24.75V24.745Z" fill="#FDDA24"/>
</g>
<defs>
<clipPath id="clip0_119_1699">
<rect width="48" height="48" fill="white"/>
</clipPath>
</defs>
</svg>
