<svg width="48" height="48" viewBox="0 0 48 48" fill="none" xmlns="http://www.w3.org/2000/svg">
<g clip-path="url(#clip0_123_2681)">
<path d="M36.065 41.4102L28.41 33.7552L24.71 39.3252L16.55 17.2002L38.68 25.3602L33.1101 29.0602L40.765 36.7152L36.07 41.4102H36.065ZM28.1 30.6152L36.065 38.5802L37.93 36.7152L29.965 28.7502L34.2901 25.8752L19.925 20.5802L25.22 34.9452L28.095 30.6202L28.1 30.6152Z" fill="#005EB8"/>
<path d="M11.071 10.3075L9.65674 11.7217L12.9943 15.0592L14.4085 13.645L11.071 10.3075Z" fill="#FDDA24"/>
<path d="M10.97 19.9448H6.25V21.9448H10.97V19.9448Z" fill="#FDDA24"/>
<path d="M12.9979 26.8338L9.6604 30.1714L11.0746 31.5856L14.4122 28.2481L12.9979 26.8338Z" fill="#FDDA24"/>
<path d="M21.2949 6.8999H19.2949V11.6199H21.2949V6.8999Z" fill="#FDDA24"/>
<path d="M29.5192 10.3055L26.1816 13.6431L27.5959 15.0573L30.9334 11.7197L29.5192 10.3055Z" fill="#FDDA24"/>
</g>
<defs>
<clipPath id="clip0_123_2681">
<rect width="48" height="48" fill="white"/>
</clipPath>
</defs>
</svg>
