<svg width="48" height="48" viewBox="0 0 48 48" fill="none" xmlns="http://www.w3.org/2000/svg">
<g clip-path="url(#clip0_119_1982)">
<path d="M42.6 30.6048V10.6548H9.57996V16.5398H11.58V12.6548H40.6V30.6048H29.33L29.04 30.8848C28.35 31.5498 27.445 31.9148 26.49 31.9148H25.745C24.785 31.9148 23.87 31.5498 23.17 30.8798L22.88 30.6048H15.31V32.6048H22.1C23.125 33.4548 24.405 33.9148 25.745 33.9148H26.49C27.825 33.9148 29.095 33.4548 30.115 32.6048H43.625C43.21 34.4248 41.505 35.3448 38.54 35.3448H15.31V37.3448H38.545C43.11 37.3448 45.73 35.2748 45.73 31.6598V30.6048H42.6Z" fill="#005EB8"/>
<path d="M13.31 37.3449H2.27002V18.5449H13.31V37.3449ZM4.27002 35.3449H11.31V20.5449H4.27002V35.3449Z" fill="#005EB8"/>
<path d="M9.80502 21.6748H5.77502V23.6748H9.80502V21.6748Z" fill="#FDDA24"/>
<path d="M30.55 14.4102H21.63V16.4102H30.55V14.4102Z" fill="#FDDA24"/>
</g>
<defs>
<clipPath id="clip0_119_1982">
<rect width="48" height="48" fill="white"/>
</clipPath>
</defs>
</svg>
