<svg width="48" height="48" viewBox="0 0 48 48" fill="none" xmlns="http://www.w3.org/2000/svg">
<g clip-path="url(#clip0_123_2755)">
<path d="M17.1001 7.5752H15.1001V13.2652H17.1001V7.5752Z" fill="#FDDA24"/>
<path d="M25.01 5.6001H23.01V11.2901H25.01V5.6001Z" fill="#FDDA24"/>
<path d="M32.925 7.5752H30.925V13.2652H32.925V7.5752Z" fill="#FDDA24"/>
<path d="M38.53 28.5502H36.53C36.53 21.6502 30.915 16.0352 24.015 16.0352C17.115 16.0352 11.5 21.6502 11.5 28.5502H9.5C9.5 20.5452 16.01 14.0352 24.015 14.0352C32.02 14.0352 38.53 20.5452 38.53 28.5502Z" fill="#005EB8"/>
<path d="M20.51 28.565H18.51C18.51 27.455 16.87 26.48 15.005 26.48C13.14 26.48 11.5 27.455 11.5 28.565H9.5C9.5 26.275 11.92 24.48 15.005 24.48C18.09 24.48 20.51 26.275 20.51 28.565Z" fill="#005EB8"/>
<path d="M29.52 28.565H27.52C27.52 27.455 25.88 26.48 24.015 26.48C22.15 26.48 20.51 27.455 20.51 28.565H18.51C18.51 26.275 20.93 24.48 24.015 24.48C27.1 24.48 29.52 26.275 29.52 28.565Z" fill="#005EB8"/>
<path d="M38.53 28.565H36.53C36.53 27.455 34.89 26.48 33.025 26.48C31.16 26.48 29.52 27.455 29.52 28.565H27.52C27.52 26.275 29.94 24.48 33.025 24.48C36.11 24.48 38.53 26.275 38.53 28.565Z" fill="#005EB8"/>
<path d="M29.5201 27.46H27.5201C27.5201 23.31 26.0751 19.36 23.2251 15.71L24.8001 14.48C27.9301 18.49 29.5151 22.855 29.5151 27.46H29.5201Z" fill="#005EB8"/>
<path d="M20.51 27.46H18.51C18.51 22.855 20.095 18.49 23.225 14.48L24.8 15.71C21.95 19.36 20.505 23.31 20.505 27.46H20.51Z" fill="#005EB8"/>
<path d="M21.7549 41.4451C19.9699 41.4451 18.5149 39.9901 18.5149 38.2051H20.5149C20.5149 38.8901 21.0699 39.4451 21.7549 39.4451C22.4399 39.4451 22.9999 38.8901 22.9999 38.2051V36.5151H24.9999V38.2051C24.9999 39.9901 23.5449 41.4451 21.7549 41.4451Z" fill="#005EB8"/>
<path d="M24.0099 28.36C23.5799 28.36 23.2299 28.455 23.0049 28.55V30.445V36.515H25.0049V28.54C24.7799 28.445 24.4349 28.355 24.0149 28.355L24.0099 28.36Z" fill="#005EB8"/>
</g>
<defs>
<clipPath id="clip0_123_2755">
<rect width="48" height="48" fill="white"/>
</clipPath>
</defs>
</svg>
