<svg width="48" height="48" viewBox="0 0 48 48" fill="none" xmlns="http://www.w3.org/2000/svg">
<g clip-path="url(#clip0_122_2374)">
<path d="M8.54499 44.6352L3.35999 39.4502L17.33 25.4802C15.635 21.6552 16.44 17.2152 19.44 14.2152C22.25 11.4052 26.47 10.5002 30.195 11.9052L31.645 12.4502L24.27 19.8252L24.66 23.3752L28.17 23.7302L35.545 16.3552L36.09 17.8052C37.495 21.5302 36.59 25.7502 33.78 28.5602C30.78 31.5602 26.34 32.3652 22.515 30.6702L8.54499 44.6402V44.6352ZM6.18499 39.4502L8.54499 41.8102L22.13 28.2252L22.785 28.5752C25.965 30.2702 29.82 29.6952 32.37 27.1452C34.235 25.2802 35.055 22.6352 34.645 20.0852L28.915 25.8152L22.85 25.2052L22.185 19.0902L27.92 13.3552C25.37 12.9402 22.725 13.7652 20.86 15.6302C18.31 18.1802 17.735 22.0352 19.43 25.2152L19.78 25.8702L6.19499 39.4552H6.18499V39.4502Z" fill="#005EB8"/>
<path d="M29.76 22.2352L29.175 18.8402L25.26 18.2652L25.55 16.2852L30.9 17.0752L31.735 21.8952L29.76 22.2352Z" fill="#005EB8"/>
<path d="M44.64 24.4149V18.6199L41.175 17.7549L39.535 13.7899L41.37 10.7249L37.275 6.62986L34.21 8.46486L30.25 6.82486L29.38 3.35986H23.585L22.72 6.82486L18.755 8.46486L15.69 6.62986L11.595 10.7249L13.43 13.7899L11.79 17.7549L8.32501 18.6199V24.4149L11.79 25.2849L12.645 27.3449L14.175 25.8099L13.255 23.5899L10.325 22.8549V20.1849L13.255 19.4499L15.665 13.6249L14.115 11.0349L16 9.14986L18.59 10.6999L24.415 8.28986L25.15 5.35986H27.82L28.555 8.28986L34.375 10.6999L36.965 9.14986L38.855 11.0349L37.305 13.6249L39.715 19.4499L42.64 20.1849V22.8549L39.715 23.5899L37.305 29.4099L38.855 31.9999L36.965 33.8899L34.375 32.3399L28.555 34.7499L27.82 37.6749H25.15L24.415 34.7499L22.19 33.8299L20.66 35.3599L22.72 36.2099L23.585 39.6749H29.38L30.25 36.2099L34.21 34.5699L37.275 36.4049L41.37 32.3099L39.535 29.2449L41.175 25.2849L44.64 24.4149Z" fill="#FDDA24"/>
<path d="M8.54499 44.6352L3.35999 39.4502L17.33 25.4802C15.635 21.6552 16.44 17.2152 19.44 14.2152C22.25 11.4052 26.47 10.5002 30.195 11.9052L31.645 12.4502L24.27 19.8252L24.66 23.3752L28.17 23.7302L35.545 16.3552L36.09 17.8052C37.495 21.5302 36.59 25.7502 33.78 28.5602C30.78 31.5602 26.34 32.3652 22.515 30.6702L8.54499 44.6402V44.6352ZM6.18499 39.4502L8.54499 41.8102L22.13 28.2252L22.785 28.5752C25.965 30.2702 29.82 29.6952 32.37 27.1452C34.235 25.2802 35.055 22.6352 34.645 20.0852L28.915 25.8152L22.85 25.2052L22.185 19.0902L27.92 13.3552C25.37 12.9402 22.725 13.7652 20.86 15.6302C18.31 18.1802 17.735 22.0352 19.43 25.2152L19.78 25.8702L6.19499 39.4552H6.18499V39.4502Z" fill="#005EB8"/>
<path d="M29.76 22.2352L29.175 18.8402L25.26 18.2652L25.55 16.2852L30.9 17.0752L31.735 21.8952L29.76 22.2352Z" fill="#005EB8"/>
<path d="M44.64 24.4149V18.6199L41.175 17.7549L39.535 13.7899L41.37 10.7249L37.275 6.62986L34.21 8.46486L30.25 6.82486L29.38 3.35986H23.585L22.72 6.82486L18.755 8.46486L15.69 6.62986L11.595 10.7249L13.43 13.7899L11.79 17.7549L8.32501 18.6199V24.4149L11.79 25.2849L12.645 27.3449L14.175 25.8099L13.255 23.5899L10.325 22.8549V20.1849L13.255 19.4499L15.665 13.6249L14.115 11.0349L16 9.14986L18.59 10.6999L24.415 8.28986L25.15 5.35986H27.82L28.555 8.28986L34.375 10.6999L36.965 9.14986L38.855 11.0349L37.305 13.6249L39.715 19.4499L42.64 20.1849V22.8549L39.715 23.5899L37.305 29.4099L38.855 31.9999L36.965 33.8899L34.375 32.3399L28.555 34.7499L27.82 37.6749H25.15L24.415 34.7499L22.19 33.8299L20.66 35.3599L22.72 36.2099L23.585 39.6749H29.38L30.25 36.2099L34.21 34.5699L37.275 36.4049L41.37 32.3099L39.535 29.2449L41.175 25.2849L44.64 24.4149Z" fill="#FDDA24"/>
</g>
<defs>
<clipPath id="clip0_122_2374">
<rect width="48" height="48" fill="white"/>
</clipPath>
</defs>
</svg>
